<svg width="87" height="87" viewBox="0 0 87 87" fill="none" xmlns="http://www.w3.org/2000/svg">
<path d="M74.2592 12.7409C66.1013 4.58303 55.0369 4.2635e-06 43.5 0C31.9631 -4.2635e-06 20.8987 4.58301 12.7409 12.7408L21.9686 21.9686C27.6791 16.2581 35.4242 13.05 43.5 13.05C51.5759 13.05 59.3209 16.2581 65.0314 21.9686L74.2592 12.7409Z" fill="#F2C94C"/>
<path d="M12.7409 12.7408C4.58303 20.8987 3.75921e-06 31.9631 0 43.5C-3.7592e-06 55.0369 4.58301 66.1013 12.7408 74.2591L21.9686 65.0314C16.2581 59.3209 13.05 51.5758 13.05 43.5C13.05 35.4241 16.2581 27.6791 21.9686 21.9686L12.7409 12.7408Z" fill="#6FCF97"/>
<path d="M74.2591 74.2591C82.417 66.1013 87 55.0369 87 43.5C87 31.9631 82.417 20.8987 74.2592 12.7409L65.0314 21.9686C70.7419 27.6791 73.95 35.4242 73.95 43.5C73.95 51.5758 70.7419 59.3209 65.0314 65.0314L74.2591 74.2591Z" fill="#EB5757"/>
</svg>
